<?xml version="1.0" encoding="utf-8"?>
<!-- Generator: Adobe Illustrator 24.0.0, SVG Export Plug-In . SVG Version: 6.00 Build 0)  -->
<svg version="1.1" id="Layer_1" xmlns="http://www.w3.org/2000/svg" xmlns:xlink="http://www.w3.org/1999/xlink" x="0px" y="0px"
	 viewBox="0 0 512 512" style="enable-background:new 0 0 512 512;" xml:space="preserve">
<path d="M256,34.8c-122.2,0-221.2,99-221.2,221.2s99,221.2,221.2,221.2s221.2-99,221.2-221.2S378.2,34.8,256,34.8z M256,433
	c-97.7,0-177-79.2-177-177S158.3,79,256,79s177,79.2,177,177S353.7,433,256,433z M278.1,254.5V145.4c0-12.2-9.9-22.1-22.1-22.1
	c-12.2,0-22.1,9.9-22.1,22.1V256c0,0,0,1.5,0,2.4c-0.5,4.5,0.3,9.1,2.4,13.1l33.2,57.5c6.1,10.6,19.7,14.3,30.3,8.2
	s14.3-19.7,8.2-30.3L278.1,254.5z"/>
</svg>
