<?xml version="1.0" encoding="utf-8"?>
<!-- Generator: Adobe Illustrator 24.0.0, SVG Export Plug-In . SVG Version: 6.00 Build 0)  -->
<svg version="1.1" id="Layer_1" xmlns="http://www.w3.org/2000/svg" xmlns:xlink="http://www.w3.org/1999/xlink" x="0px" y="0px"
	 viewBox="0 0 512 512" style="enable-background:new 0 0 512 512;" xml:space="preserve">
<path d="M383.6,118.5H128.4c-6.2,0-12.1,2.6-16.4,7.3c-4.3,4.7-6.8,11-6.8,17.7v225c0,6.6,2.4,13,6.8,17.7
	c4.3,4.7,10.3,7.3,16.4,7.3h255.2c6.2,0,12.1-2.6,16.4-7.3c4.3-4.7,6.8-11,6.8-17.7v-225c0-6.6-2.4-13-6.8-17.7
	C395.6,121.1,389.7,118.5,383.6,118.5z M217.7,368.5h-80c-5.1,0-9.3-4.2-9.3-9.3v-18.9c0-5.1,4.2-9.3,9.3-9.3h80
	c5.1,0,9.3,4.2,9.3,9.3v18.9C227,364.3,222.9,368.5,217.7,368.5z M374.3,368.5h-68.4c-5.1,0-9.3-4.2-9.3-9.3v-18.9
	c0-5.1,4.2-9.3,9.3-9.3h68.4c5.1,0,9.3,4.2,9.3,9.3v18.9C383.6,364.3,379.4,368.5,374.3,368.5z M383.6,296.7c0,5.1-4.2,9.3-9.3,9.3
	H285c-6.4,0-11.6,5.6-11.6,12.5v40.7c0,5.1-4.2,9.3-9.3,9.3h-4.6c-5.1,0-9.3-4.2-9.3-9.3v-40.7c0-6.9-5.2-12.5-11.6-12.5H137.7
	c-5.1,0-9.3-4.2-9.3-9.3V152.8c0-5.1,4.2-9.3,9.3-9.3h4.6c5.1,0,9.3,4.2,9.3,9.3v12.7c0,5.1,4.2,9.3,9.3,9.3h4.6
	c5.1,0,9.3-4.2,9.3-9.3v-12.7c0-5.1,4.2-9.3,9.3-9.3h4.6c5.1,0,9.3,4.2,9.3,9.3v12.7c0,5.1,4.2,9.3,9.3,9.3h4.6
	c5.1,0,9.3-4.2,9.3-9.3v-12.7c0-5.1,4.2-9.3,9.3-9.3h4.6c5.1,0,9.3,4.2,9.3,9.3v37.7c0,5.1-4.2,9.3-9.3,9.3h-45.2
	c-5.1,0-9.3,4.2-9.3,9.3v62.7c0,5.1,4.2,9.3,9.3,9.3h184.4c5.1,0,9.3,4.2,9.3,9.3L383.6,296.7z M374.3,256H213.1
	c-5.1,0-9.3-4.2-9.3-9.3V234c0-5.1,4.2-9.3,9.3-9.3h45.2c5.1,0,9.3-4.2,9.3-9.3v-62.7c0-5.1,4.2-9.3,9.3-9.3h4.6
	c5.1,0,9.3,4.2,9.3,9.3v43.9c0,5.1,4.2,9.3,9.3,9.3h4.6c5.1,0,9.3-4.2,9.3-9.3v-43.9c0-5.1,4.2-9.3,9.3-9.3h4.6
	c5.1,0,9.3,4.2,9.3,9.3v43.9c0,5.1,4.2,9.3,9.3,9.3h4.6c5.1,0,9.3-4.2,9.3-9.3v-43.9c0-5.1,4.2-9.3,9.3-9.3h4.6
	c5.1,0,9.3,4.2,9.3,9.3l0,93.9C383.6,251.8,379.4,256,374.3,256z"/>
<path d="M58.8,111.4c0,3.9-3.2,7.1-7.1,7.1H35.6c-6.4,0-11.6,5.6-11.6,12.5c0,6.9,5.2,12.5,11.6,12.5h16.1c3.9,0,7.1,3.2,7.1,7.1
	v23.4c0,3.9-3.2,7.1-7.1,7.1H35.6c-6.4,0-11.6,5.6-11.6,12.5S29.2,206,35.6,206h16.1c3.9,0,7.1,3.2,7.1,7.1v23.4
	c0,3.9-3.2,7.1-7.1,7.1H35.6c-6.4,0-11.6,5.6-11.6,12.5s5.2,12.5,11.6,12.5h16.1c3.9,0,7.1,3.2,7.1,7.1v23.4c0,3.9-3.2,7.1-7.1,7.1
	H35.6c-6.4,0-11.6,5.6-11.6,12.5S29.2,331,35.6,331h16.1c3.9,0,7.1,3.2,7.1,7.1v23.4c0,3.9-3.2,7.1-7.1,7.1H35.6
	c-6.4,0-11.6,5.6-11.6,12.5s5.2,12.5,11.6,12.5h16.1c3.9,0,7.1,3.2,7.1,7.1v17.9c0,6.6,2.4,13,6.8,17.7c4.3,4.7,10.3,7.3,16.4,7.3
	h45.1c3.9,0,7.1,3.2,7.1,7.1v17.9c0,6.9,5.2,12.5,11.6,12.5c6.4,0,11.6-5.6,11.6-12.5v-17.9c0-3.9,3.2-7.1,7.1-7.1h20.7
	c3.9,0,7.1,3.2,7.1,7.1v17.9c0,6.9,5.2,12.5,11.6,12.5c6.4,0,11.6-5.6,11.6-12.5v-17.9c0-3.9,3.2-7.1,7.1-7.1h20.7
	c3.9,0,7.1,3.2,7.1,7.1v17.9c0,6.9,5.2,12.5,11.6,12.5c6.4,0,11.6-5.6,11.6-12.5v-17.9c0-3.9,3.2-7.1,7.1-7.1h20.7
	c3.9,0,7.1,3.2,7.1,7.1v17.9c0,6.9,5.2,12.5,11.6,12.5c6.4,0,11.6-5.6,11.6-12.5v-17.9c0-3.9,3.2-7.1,7.1-7.1h20.7
	c3.9,0,7.1,3.2,7.1,7.1v17.9c0,6.9,5.2,12.5,11.6,12.5s11.6-5.6,11.6-12.5v-17.9c0-3.9,3.2-7.1,7.1-7.1H430c6.2,0,12.1-2.6,16.4-7.3
	c4.3-4.7,6.8-11,6.8-17.7v-17.9c0-3.9,3.2-7.1,7.1-7.1h16.1c6.4,0,11.6-5.6,11.6-12.5s-5.2-12.5-11.6-12.5h-16.1
	c-3.9,0-7.1-3.2-7.1-7.1v-23.4c0-3.9,3.2-7.1,7.1-7.1h16.1c6.4,0,11.6-5.6,11.6-12.5s-5.2-12.5-11.6-12.5h-16.1
	c-3.9,0-7.1-3.2-7.1-7.1v-23.4c0-3.9,3.2-7.1,7.1-7.1h16.1c6.4,0,11.6-5.6,11.6-12.5s-5.2-12.5-11.6-12.5h-16.1
	c-3.9,0-7.1-3.2-7.1-7.1v-23.4c0-3.9,3.2-7.1,7.1-7.1h16.1c6.4,0,11.6-5.6,11.6-12.5s-5.2-12.5-11.6-12.5h-16.1
	c-3.9,0-7.1-3.2-7.1-7.1v-23.4c0-3.9,3.2-7.1,7.1-7.1h16.1c6.4,0,11.6-5.6,11.6-12.5c0-6.9-5.2-12.5-11.6-12.5h-16.1
	c-3.9,0-7.1-3.2-7.1-7.1V93.5c0-6.6-2.4-13-6.8-17.7c-4.3-4.7-10.3-7.3-16.4-7.3h-33.5c-3.9,0-7.1-3.2-7.1-7.1V43.5
	c0-6.9-5.2-12.5-11.6-12.5s-11.6,5.6-11.6,12.5v17.9c0,3.9-3.2,7.1-7.1,7.1h-20.7c-3.9,0-7.1-3.2-7.1-7.1V43.5
	c0-6.9-5.2-12.5-11.6-12.5c-6.4,0-11.6,5.6-11.6,12.5v17.9c0,3.9-3.2,7.1-7.1,7.1h-20.7c-3.9,0-7.1-3.2-7.1-7.1V43.5
	c0-6.9-5.2-12.5-11.6-12.5c-6.4,0-11.6,5.6-11.6,12.5v17.9c0,3.9-3.2,7.1-7.1,7.1h-20.7c-3.9,0-7.1-3.2-7.1-7.1V43.5
	c0-6.9-5.2-12.5-11.6-12.5c-6.4,0-11.6,5.6-11.6,12.5v17.9c0,3.9-3.2,7.1-7.1,7.1h-20.7c-3.9,0-7.1-3.2-7.1-7.1V43.5
	c0-6.9-5.2-12.5-11.6-12.5c-6.4,0-11.6,5.6-11.6,12.5v17.9c0,3.9-3.2,7.1-7.1,7.1H82c-6.2,0-12.1,2.6-16.4,7.3
	c-4.3,4.7-6.8,11-6.8,17.7V111.4z M89.1,93.5h333.8c3.9,0,7.1,3.2,7.1,7.1v310.9c0,3.9-3.2,7.1-7.1,7.1H89.1c-3.9,0-7.1-3.2-7.1-7.1
	V100.6C82,96.7,85.2,93.5,89.1,93.5z"/>
</svg>
