<?xml version="1.0" encoding="utf-8"?>
<!-- Generator: Adobe Illustrator 24.0.0, SVG Export Plug-In . SVG Version: 6.00 Build 0)  -->
<svg version="1.1" id="Layer_1" xmlns="http://www.w3.org/2000/svg" xmlns:xlink="http://www.w3.org/1999/xlink" x="0px" y="0px"
	 viewBox="0 0 24 24" style="enable-background:new 0 0 24 24;" xml:space="preserve">
<path d="M12,21.2c-0.8,0-1.6-0.3-2.2-0.9l-6.2-6.2C1.3,11.8,1,8.1,3,5.5c1.2-1.7,3.2-2.7,5.3-2.7c1.3,0,2.6,0.4,3.7,1.2
	c1.1-0.7,2.4-1.1,3.7-1.1c1.8,0,3.4,0.7,4.7,1.9c2.6,2.6,2.6,6.7,0,9.3l-6.2,6.2C13.6,20.9,12.8,21.2,12,21.2z M8.3,5.5
	c-1,0-2,0.4-2.8,1.1c-1.5,1.5-1.5,4,0,5.5l6.2,6.2c0.1,0.1,0.2,0.1,0.3,0.1c0.1,0,0.2,0,0.3-0.1l6.1-6.1l0.1-0.1
	c1.5-1.5,1.4-4-0.1-5.5c-0.7-0.7-1.7-1.1-2.8-1.1s-2,0.4-2.8,1.1c-0.3,0.3-0.6,0.4-0.9,0.4c-0.4,0-0.7-0.1-0.9-0.4
	C10.3,5.9,9.3,5.5,8.3,5.5z"/>
</svg>
