<?xml version="1.0" encoding="utf-8"?>
<!-- Generator: Adobe Illustrator 24.0.0, SVG Export Plug-In . SVG Version: 6.00 Build 0)  -->
<svg version="1.1" id="Layer_1" xmlns="http://www.w3.org/2000/svg" xmlns:xlink="http://www.w3.org/1999/xlink" x="0px" y="0px"
	 viewBox="0 0 512 512" style="enable-background:new 0 0 512 512;" xml:space="preserve">
<path d="M256,476c-58.8,0-114-22.9-155.6-64.4C58.9,370,36,314.8,36,256c0-58.8,22.9-114,64.4-155.6C142,58.9,197.2,36,256,36
	c58.8,0,114,22.9,155.6,64.4C453.1,142,476,197.2,476,256c0,58.8-22.9,114-64.4,155.6C370,453.1,314.8,476,256,476z M256,87.2
	c-93.1,0-168.8,75.7-168.8,168.8c0,93.1,75.7,168.8,168.8,168.8c93.1,0,168.8-75.7,168.8-168.8C424.8,162.9,349.1,87.2,256,87.2z
	 M256,368c-14.1,0-25.6-11.5-25.6-25.6V256c0-14.1,11.5-25.6,25.6-25.6c14.1,0,25.6,11.5,25.6,25.6v86.4
	C281.6,356.5,270.1,368,256,368z M256,195.1c-3.3,0-6.7-0.7-9.7-1.9c-3.1-1.3-5.9-3.1-8.3-5.2l-0.3-0.3c-4.7-4.8-7.4-11.4-7.4-18.1
	l0-0.1c-0.1-3.3,0.6-6.7,2-9.7l0.1-0.2c1.2-3,3-5.7,5.2-8l0.3-0.3c2.4-2.3,5.2-4.1,8.3-5.3c3.2-1.2,6.4-1.9,9.7-1.9s6.5,0.6,9.7,1.9
	c3.1,1.2,5.8,2.9,8.3,5.3l0.3,0.3c4.6,4.9,7.2,11.3,7.3,18v0.1c0,3.3-0.6,6.5-1.9,9.6C275.7,188.9,266.4,195.1,256,195.1z"/>
</svg>
