<?xml version="1.0" encoding="utf-8"?>
<!-- Generator: Adobe Illustrator 24.0.0, SVG Export Plug-In . SVG Version: 6.00 Build 0)  -->
<svg version="1.1" id="Layer_1" xmlns="http://www.w3.org/2000/svg" xmlns:xlink="http://www.w3.org/1999/xlink" x="0px" y="0px"
	 viewBox="0 0 24 24" style="enable-background:new 0 0 24 24;" xml:space="preserve">
<path d="M10.8,20.4H7.2C6.5,20.4,6,21,6,21.7s0.5,1.2,1.2,1.2h3.6c0.7,0,1.2-0.5,1.2-1.2S11.5,20.4,10.8,20.4z M21.7,15.6h-1.4
	c0.7-1.1,1.2-2.3,1.4-3.6c0.1-0.4-0.1-0.8-0.4-1.1c-0.3-0.3-0.8-0.4-1.2-0.2c-0.7,0.3-1.5,0.4-2.3,0.4c-4,0-7.3-3.2-7.3-7.3
	c0-0.4,0.1-0.8,0.1-1.2c0.1-0.4-0.1-0.8-0.4-1.1C9.8,1.2,9.3,1.1,8.9,1.3c-3.9,1.3-6.5,5-6.6,9.1c0,1.9,0.5,3.7,1.5,5.2H2.3
	c-0.7,0-1.2,0.5-1.2,1.2c0,0.7,0.5,1.2,1.2,1.2h19.3c0.7,0,1.2-0.5,1.2-1.2C22.9,16.2,22.3,15.6,21.7,15.6z M17.2,15.6H7
	C4.1,12.8,4,8.3,6.7,5.4C7.1,5,7.6,4.6,8,4.3c0.3,5.2,4.6,9.2,9.7,9.2c0.3,0,0.6,0,1,0C18.3,14.3,17.8,15,17.2,15.6z M16.8,20.4
	h-1.2c-0.7,0-1.2,0.5-1.2,1.2s0.5,1.2,1.2,1.2h1.2c0.7,0,1.2-0.5,1.2-1.2S17.5,20.4,16.8,20.4z"/>
</svg>
