<?xml version="1.0" encoding="utf-8"?>
<!-- Generator: Adobe Illustrator 24.0.0, SVG Export Plug-In . SVG Version: 6.00 Build 0)  -->
<svg version="1.1" id="Layer_1" xmlns="http://www.w3.org/2000/svg" xmlns:xlink="http://www.w3.org/1999/xlink" x="0px" y="0px"
	 viewBox="0 0 24 24" style="enable-background:new 0 0 24 24;" xml:space="preserve">
<style type="text/css">
	.st0{fill:none;}
</style>
<path class="st0" d="M0,0h24v24H0V0z"/>
<path d="M12.1,22c-0.1,0-0.1,0-0.2,0C6.5,22,2,17.5,2,12C2,6.5,6.5,2,12,2c5.5,0,10,4,10,9c0,2.8-2.5,5-5.5,5H14c0,0,0,0,0,0
	c-0.6,0-1,0.4-1,1c0,0.4,0.2,0.7,0.5,0.9c0.1,0,0.1,0.1,0.2,0.1c0.9,0.9,1,2.3,0.1,3.2C13.4,21.7,12.8,22,12.1,22z M12,4
	c-4.4,0-8,3.6-8,8s3.6,8,8,8c0,0,0.1,0,0.1,0c0.1,0,0.2,0,0.2-0.1c0.1-0.1,0.1-0.3,0-0.4C11.5,19,11,18,11,17c0-0.8,0.3-1.5,0.9-2.1
	S13.3,14,14,14h2.5c1.9,0,3.5-1.3,3.5-3C20,7.1,16.4,4,12,4z"/>
<circle cx="7.5" cy="10.5" r="2"/>
<circle cx="12" cy="7.5" r="2"/>
<circle cx="16.5" cy="10.5" r="2"/>
</svg>
