<?xml version="1.0" encoding="utf-8"?>
<!-- Generator: Adobe Illustrator 24.0.0, SVG Export Plug-In . SVG Version: 6.00 Build 0)  -->
<svg version="1.1" id="Layer_1" xmlns="http://www.w3.org/2000/svg" xmlns:xlink="http://www.w3.org/1999/xlink" x="0px" y="0px"
	 viewBox="0 0 512 512" style="enable-background:new 0 0 512 512;" xml:space="preserve">
<path d="M256,486c-121.3,0-220-98.9-220-220.4c0-66.1,28.8-128,79.1-169.8c5.1-4.3,11.7-6.7,18.5-6.7c8.5,0,16.6,3.8,22.1,10.3
	c10.2,12.1,8.5,30.3-3.6,40.5L152,140c-37.1,31-58.4,76.8-58.4,125.6c0,89.9,72.9,162.8,162.4,162.8s162.4-73,162.4-162.8
	c0-48.7-21.6-94.5-59.2-125.4c-12.4-9.8-14.7-27.9-4.9-40.4c5.4-7,13.8-11.1,22.7-11.1c6.5,0,12.5,2.2,17.7,6.1
	c0.4,0.3,0.7,0.6,1.1,0.9c50.9,41.9,80.2,103.8,80.2,169.8C476,387.1,377.3,486,256,486z"/>
<path d="M256,288.6c-15.8,0-28.8-13-28.8-28.8v-185c0-15.8,13-28.8,28.8-28.8s28.8,13,28.8,28.8v185
	C284.8,275.7,271.8,288.6,256,288.6z"/>
</svg>
