<?xml version="1.0" encoding="utf-8"?>
<!-- Generator: Adobe Illustrator 24.0.0, SVG Export Plug-In . SVG Version: 6.00 Build 0)  -->
<svg version="1.1" id="Layer_1" xmlns="http://www.w3.org/2000/svg" xmlns:xlink="http://www.w3.org/1999/xlink" x="0px" y="0px"
	 viewBox="0 0 512 512" style="enable-background:new 0 0 512 512;" xml:space="preserve">
<style type="text/css">
	.st0{fill:none;}
</style>
<path class="st0" d="M-11.7-11.7h535.3v535.3H-11.7V-11.7z"/>
<path d="M256,482.1c-28.5,0-52.3-18.9-59.2-46.9c-2.2-9-11.2-14.8-20.1-12.6c-1.6,0.4-3.1,1-4.5,1.8c-24.4,14.7-54.5,10.9-75-9.6
	c-20.5-20.5-24.4-50.6-9.6-75c4.7-7.7,2-17.9-5.9-22.7c-1.5-0.9-3.1-1.6-4.8-2c-28-6.9-46.9-30.7-46.9-59.2s18.8-52.3,46.9-59.2
	c9.1-2.2,14.7-11.2,12.6-20.1c-0.4-1.6-1-3.1-1.8-4.5c-14.8-24.4-10.9-54.5,9.6-75c20.5-20.5,50.6-24.4,75-9.6
	c4.4,2.7,9.7,3.1,14.6,1c5.1-2.1,8.7-6.4,10-11.7c0,0,0,0,0,0c6.9-28,30.7-46.9,59.2-46.9s52.3,18.8,59.2,46.9
	c2.2,9.1,11.1,14.7,20.1,12.6c1.6-0.4,3.1-1,4.5-1.8c24.4-14.8,54.5-10.9,75,9.6c20.5,20.5,24.4,50.6,9.6,75
	c-4.6,7.7-2,17.9,5.9,22.6c1.5,0.9,3.2,1.6,4.8,2c28,6.9,46.9,30.7,46.9,59.2s-18.9,52.3-46.9,59.2c-9.1,2.2-14.7,11.2-12.6,20.1
	c0.4,1.6,1,3.1,1.8,4.5c14.8,24.4,10.9,54.5-9.6,75c-20.5,20.5-50.6,24.4-75,9.6c-7.7-4.6-17.9-2-22.7,5.9c-0.9,1.5-1.6,3.1-2,4.8
	C308.3,463.2,284.5,482.1,256,482.1z M180.4,377.5c27.7,0,52.9,19,59.8,47.1c2.9,12,12.9,12.9,15.8,12.9c3,0,12.9-0.9,15.8-12.9
	c1.5-6.1,3.9-12,7.2-17.4c17.6-28.9,55.2-38.2,83.9-20.9c9.9,5.9,18.1-0.8,20.3-3c2.2-2.2,9-10.3,3-20.3c-3.2-5.4-5.7-11.3-7.1-17.5
	c-7.7-32.7,12.7-65.7,45.5-73.7c11.9-2.9,12.9-12.9,12.9-15.8c0-3-0.9-12.9-12.9-15.8c-6.1-1.5-12-3.9-17.4-7.2
	c-28.9-17.5-38.3-55.1-20.9-83.9c6.1-10-0.8-18.1-3-20.3c-2.2-2.2-10.3-9.1-20.3-3c-5.4,3.3-11.2,5.7-17.4,7.1
	c-32.6,7.7-65.7-12.7-73.7-45.5C268.9,75.5,259,74.5,256,74.5c-3,0-12.9,0.9-15.8,12.9l0,0c-4.7,19.3-17.9,34.8-36.3,42.4
	c-18.1,7.5-38.1,6.1-54.8-4.1c-10-6-18.1,0.8-20.3,3c-2.2,2.2-9.1,10.3-3,20.3c3.3,5.4,5.7,11.2,7.1,17.4
	c7.7,32.7-12.7,65.7-45.5,73.7C75.5,243.1,74.5,253,74.5,256c0,3,0.9,12.9,12.9,15.8c6.1,1.5,12,3.9,17.4,7.2
	c28.9,17.5,38.3,55.2,20.9,83.9c-6.1,10,0.8,18.1,3,20.3c2.2,2.2,10.3,9,20.3,3c5.3-3.2,11.2-5.7,17.4-7.1
	C171.1,378,175.8,377.5,180.4,377.5z"/>
<path d="M256,340.6c-46.6,0-84.6-37.9-84.6-84.6s37.9-84.6,84.6-84.6s84.6,37.9,84.6,84.6S302.6,340.6,256,340.6z M256,216
	c-22,0-40,17.9-40,40c0,22,17.9,40,40,40c22,0,40-17.9,40-40C296,234,278,216,256,216z"/>
</svg>
