<?xml version="1.0" encoding="utf-8"?>
<!-- Generator: Adobe Illustrator 24.0.0, SVG Export Plug-In . SVG Version: 6.00 Build 0)  -->
<svg version="1.1" id="Layer_1" xmlns="http://www.w3.org/2000/svg" xmlns:xlink="http://www.w3.org/1999/xlink" x="0px" y="0px"
	 viewBox="0 0 24 24" style="enable-background:new 0 0 24 24;" xml:space="preserve">
<path d="M15.8,20H21c0.6,0,1-0.4,1-1s-0.4-1-1-1h-5.2c-0.6-1.6-2.3-2.4-3.8-1.8c-0.8,0.3-1.5,1-1.8,1.8H3c-0.6,0-1,0.4-1,1
	s0.4,1,1,1h7.2c0.6,1.6,2.3,2.4,3.8,1.8C14.9,21.5,15.5,20.8,15.8,20z M12,19c0-0.6,0.4-1,1-1s1,0.4,1,1s-0.4,1-1,1S12,19.6,12,19z
	 M9.8,13H21c0.6,0,1-0.4,1-1s-0.4-1-1-1H9.8C9.3,9.4,7.5,8.6,6,9.2c-0.8,0.3-1.5,1-1.8,1.8H3c-0.6,0-1,0.4-1,1s0.4,1,1,1h1.2
	c0.6,1.6,2.3,2.4,3.8,1.8C8.9,14.5,9.5,13.8,9.8,13z M6,12c0-0.6,0.4-1,1-1s1,0.4,1,1s-0.4,1-1,1S6,12.6,6,12z M17.8,6H21
	c0.6,0,1-0.4,1-1s-0.4-1-1-1h-3.2c-0.6-1.6-2.3-2.4-3.8-1.8c-0.8,0.3-1.5,1-1.8,1.8H3C2.4,4,2,4.4,2,5s0.4,1,1,1h9.2
	c0.6,1.6,2.3,2.4,3.8,1.8C16.9,7.5,17.5,6.8,17.8,6z M14,5c0-0.6,0.4-1,1-1s1,0.4,1,1s-0.4,1-1,1S14,5.6,14,5z"/>
</svg>
