<?xml version="1.0" encoding="utf-8"?>
<!-- Generator: Adobe Illustrator 24.0.0, SVG Export Plug-In . SVG Version: 6.00 Build 0)  -->
<svg version="1.1" id="Layer_1" xmlns="http://www.w3.org/2000/svg" xmlns:xlink="http://www.w3.org/1999/xlink" x="0px" y="0px"
	 viewBox="0 0 512 512" style="enable-background:new 0 0 512 512;" xml:space="preserve">
<title>ionicons-v5-q</title>
<path d="M402,472c-0.8,0-1.5,0-2.3-0.1c-13.1-0.6-25.2-6.3-34.1-16c-2.7-3-5.7-5.9-8.7-8.7c-29.3-27-67.4-40.9-107.2-39.3
	c-39.8,1.7-76.6,18.7-103.5,48c-0.9,1-1.9,1.9-2.9,2.9c-19.8,18.3-50.8,17.2-69.2-2.4c-1.1-1.1-2-2.1-2.7-2.9
	c-0.3-0.3-0.6-0.6-0.9-1c-0.1-0.1-0.2-0.2-0.3-0.3C30.1,407,7.9,348.6,8,287.9c0-66.2,25.8-128.5,72.6-175.3
	C127.5,65.8,189.8,40,256,40c66.2,0,128.5,25.8,175.4,72.6c46.8,46.8,72.6,109.1,72.6,175.3c0.1,60.7-22.1,119.1-62.4,164.4
	c-0.1,0.1-0.2,0.2-0.2,0.3l-3.2,3.5c0,0-0.1,0.1-0.1,0.1c-0.9,1-1.9,2-2.9,2.9C426,467.5,414.3,472,402,472z M423.7,436.4
	L423.7,436.4L423.7,436.4z M256.1,360c47.7,0,95.6,17.2,133.4,52c4,3.7,7.9,7.6,11.6,11.6c0.2,0.2,0.4,0.4,0.9,0.5
	c0.5,0,0.8-0.2,0.9-0.3c0,0,0,0,0.1-0.1l3-3.3c32.4-36.5,50.2-83.6,50.1-132.4C456,177.7,366.3,88,256,88S56,177.7,56,287.9
	c-0.1,48.9,17.7,95.9,50.1,132.4c0.4,0.5,0.8,0.9,1.2,1.4c0.4,0.5,0.9,1,1.1,1.2c0.2,0.2,0.4,0.5,0.7,0.7c0.4,0.5,1.2,0.5,1.7,0.1
	c0,0,0,0,0.1-0.1C149.7,381.4,202.8,360,256.1,360z"/>
<path d="M256,184c-13.3,0-24-10.7-24-24v-32c0-13.3,10.7-24,24-24s24,10.7,24,24v32C280,173.3,269.3,184,256,184z"/>
<path d="M416,312h-32c-13.3,0-24-10.7-24-24s10.7-24,24-24h32c13.3,0,24,10.7,24,24S429.3,312,416,312z"/>
<path d="M128,312H96c-13.3,0-24-10.7-24-24s10.7-24,24-24h32c13.3,0,24,10.7,24,24S141.3,312,128,312z"/>
<path d="M165.5,221.5c-6.1,0-12.3-2.3-17-7l-22.6-22.6c-9.4-9.4-9.4-24.6,0-33.9c9.4-9.4,24.6-9.4,33.9,0l22.6,22.6
	c9.4,9.4,9.4,24.6,0,33.9C177.8,219.1,171.6,221.5,165.5,221.5z"/>
<path d="M346.5,221.5c-6.1,0-12.3-2.3-17-7c-9.4-9.4-9.4-24.6,0-33.9l22.6-22.6c9.4-9.4,24.6-9.4,33.9,0c9.4,9.4,9.4,24.6,0,33.9
	l-22.6,22.6C358.8,219.1,352.7,221.5,346.5,221.5z"/>
</svg>
