<?xml version="1.0" encoding="utf-8"?>
<!-- Generator: Adobe Illustrator 24.0.0, SVG Export Plug-In . SVG Version: 6.00 Build 0)  -->
<svg version="1.1" id="Layer_1" xmlns="http://www.w3.org/2000/svg" xmlns:xlink="http://www.w3.org/1999/xlink" x="0px" y="0px"
	 viewBox="0 0 24 24" style="enable-background:new 0 0 24 24;" xml:space="preserve">
<path d="M19,21.2c-0.7,0-1.2-0.5-1.2-1.2v-0.9c-1.6,1.3-3.7,2.1-5.8,2.1c-5.1,0-9.2-4.1-9.2-9.2c0-0.7,0.5-1.2,1.2-1.2
	s1.2,0.5,1.2,1.2c0,1.8,0.8,3.6,2.1,4.9c1.3,1.2,3,1.9,4.7,1.9c1.6,0,3.2-0.6,4.4-1.6H15c-0.7,0-1.2-0.5-1.2-1.2
	c0-0.7,0.5-1.2,1.2-1.2h4c0.6,0,1.2,0.5,1.2,1.2v4C20.2,20.7,19.7,21.2,19,21.2z M20,13.2c-0.7,0-1.2-0.5-1.2-1.2
	c0-1.8-0.8-3.6-2.1-4.9c-1.3-1.2-3-1.9-4.7-1.9c-1.6,0-3.2,0.6-4.4,1.6H9c0.7,0,1.2,0.5,1.2,1.2S9.6,9.2,9,9.2H5
	C4.3,9.2,3.8,8.6,3.8,8V4c0-0.7,0.5-1.2,1.2-1.2S6.2,3.3,6.2,4v0.9C7.8,3.5,9.9,2.8,12,2.8c5.1,0,9.2,4.1,9.2,9.2
	C21.2,12.7,20.7,13.2,20,13.2z"/>
</svg>
