<?xml version="1.0" encoding="utf-8"?>
<!-- Generator: Adobe Illustrator 24.0.0, SVG Export Plug-In . SVG Version: 6.00 Build 0)  -->
<svg version="1.1" id="Layer_1" xmlns="http://www.w3.org/2000/svg" xmlns:xlink="http://www.w3.org/1999/xlink" x="0px" y="0px"
	 viewBox="0 0 512 512" style="enable-background:new 0 0 512 512;" xml:space="preserve">
<path d="M420.1,159.5C380.8,69.1,275.6,27.7,185.2,67c-57.5,25-97.7,78.4-105.8,140.6C24.7,220.8-9.1,275.8,4,330.6
	c11,46,52.1,78.3,99.4,78.2c14.1,0,25.5-11.4,25.5-25.5s-11.4-25.5-25.5-25.5c-28.2,0-51-22.8-51-51c0-28.2,22.8-51,51-51
	c14.1,0,25.5-11.4,25.5-25.5c0.2-70.4,57.4-127.4,127.8-127.2c54.4,0.1,102.7,34.7,120.3,86.2c3,8.9,10.6,15.5,19.9,17.1
	c41.5,7.8,68.8,47.9,61,89.4c-5.4,28.7-26.7,51.8-54.8,59.5c-13.7,3.5-21.9,17.4-18.4,31.1c3.5,13.7,17.4,21.9,31.1,18.4
	c68.1-18,108.7-87.8,90.7-155.8C495.2,206.1,462.5,172.3,420.1,159.5z M274.5,212.3c-2.4-2.3-5.3-4.1-8.4-5.4
	c-6.2-2.6-13.2-2.6-19.4,0c-3.1,1.2-6,3-8.4,5.4l-76.5,76.5c-10,10-10,26.2,0,36.2c10,10,26.2,10,36.2,0l32.9-33.2v142.5
	c0,14.1,11.4,25.5,25.5,25.5c14.1,0,25.5-11.4,25.5-25.5V291.8l32.9,33.2c9.9,10,26.1,10.1,36.1,0.1c0,0,0.1-0.1,0.1-0.1
	c10-9.9,10.1-26.1,0.1-36.1c0,0-0.1-0.1-0.1-0.1L274.5,212.3z"/>
</svg>
