<?xml version="1.0" encoding="utf-8"?>
<!-- Generator: Adobe Illustrator 24.0.0, SVG Export Plug-In . SVG Version: 6.00 Build 0)  -->
<svg version="1.1" id="Layer_1" xmlns="http://www.w3.org/2000/svg" xmlns:xlink="http://www.w3.org/1999/xlink" x="0px" y="0px"
	 viewBox="0 0 512 512" style="enable-background:new 0 0 512 512;" xml:space="preserve">
<path d="M507.9,160.1C366.2,29,145.8,29.1,4.1,160.1c-5.3,4.9-5.4,13.3-0.3,18.4l27.4,27.2c4.9,4.9,12.8,5,17.9,0.3
	c116.7-106.9,297-107,413.8,0c5.1,4.7,13,4.6,17.9-0.3l27.4-27.2C513.4,173.4,513.3,165,507.9,160.1L507.9,160.1z M256,317.8
	c-28.3,0-51.2,22.9-51.2,51.2c0,28.3,22.9,51.2,51.2,51.2c28.3,0,51.2-22.9,51.2-51.2C307.2,340.7,284.3,317.8,256,317.8z
	 M418.1,250.9c-92.2-81.5-232.2-81.5-324.3,0c-5.5,4.9-5.7,13.4-0.5,18.5l27.6,27.2c4.8,4.7,12.5,5.1,17.6,0.6
	c67.2-58.1,167.8-57.9,234.8,0c5.1,4.4,12.8,4.1,17.6-0.6l27.6-27.2C423.8,264.3,423.6,255.8,418.1,250.9z"/>
</svg>
